<!-- Generator: Adobe Illustrator 19.2.1, SVG Export Plug-In  -->
<svg version="1.1"
	 xmlns="http://www.w3.org/2000/svg" xmlns:xlink="http://www.w3.org/1999/xlink" xmlns:a="http://ns.adobe.com/AdobeSVGViewerExtensions/3.0/"
	 x="0px" y="0px" width="406px" height="95.99px" viewBox="0 0 406 95.99" style="enable-background:new 0 0 406 95.99;"
	 xml:space="preserve">
<style type="text/css">
	.st0{fill:#3399CC;}
</style>
<defs>
</defs>
<g>
	<path class="st0" d="M371.038,0H0v95.99h406L371.038,0z M10.349,10.349h353.445L389.9,85.641H10.349V10.349z"/>
	<g>
		<path class="st0" d="M195.713,33.228c-1.575-1.733-3.452-3.065-5.632-3.997s-4.566-1.398-7.156-1.398
			c-2.627,0-5.031,0.466-7.212,1.398c-2.18,0.932-4.058,2.264-5.632,3.997c-1.575,1.733-2.796,3.839-3.662,6.317
			c-0.867,2.479-1.3,5.274-1.3,8.386v1.649c0,3.112,0.438,5.908,1.314,8.386c0.876,2.478,2.101,4.584,3.675,6.317
			c1.575,1.733,3.457,3.061,5.647,3.983c2.19,0.923,4.598,1.384,7.226,1.384c2.59,0,4.971-0.461,7.142-1.384
			c2.171-0.922,4.043-2.25,5.618-3.983c1.574-1.733,2.8-3.839,3.676-6.317c0.876-2.478,1.314-5.273,1.314-8.386v-1.649
			c0-3.112-0.443-5.907-1.328-8.386C198.518,37.067,197.288,34.961,195.713,33.228z M190.752,49.581c0,4.007-0.671,7.077-2.012,9.21
			c-1.342,2.134-3.261,3.201-5.758,3.201c-2.609,0-4.575-1.071-5.898-3.215c-1.323-2.143-1.985-5.209-1.985-9.197v-1.705
			c0-4.044,0.647-7.114,1.943-9.211c1.295-2.096,3.257-3.145,5.884-3.145c2.516,0,4.45,1.048,5.801,3.145
			c1.351,2.096,2.026,5.167,2.026,9.211V49.581z"/>
		<polygon class="st0" points="150.276,53.717 135.88,28.392 126.069,28.392 126.069,69.092 135.88,69.092 135.88,43.766 
			150.304,69.092 160.059,69.092 160.059,28.392 150.276,28.392 		"/>
		<polygon class="st0" points="33.668,69.092 43.48,69.092 43.48,52.879 59.225,52.879 59.225,45.332 43.48,45.332 43.48,35.967 
			60.894,35.967 60.894,28.392 33.668,28.392 		"/>
		<rect x="66.09" y="28.392" class="st0" width="9.784" height="40.7"/>
		<polygon class="st0" points="108.047,53.717 93.651,28.392 83.839,28.392 83.839,69.092 93.651,69.092 93.651,43.766 
			108.075,69.092 117.83,69.092 117.83,28.392 108.047,28.392 		"/>
		<path class="st0" d="M282.768,36.457c0.475-0.382,1.067-0.68,1.775-0.895c0.708-0.214,1.528-0.321,2.46-0.321
			c0.951,0,1.775,0.131,2.474,0.391c0.699,0.261,1.286,0.62,1.761,1.076c0.475,0.457,0.829,1.006,1.062,1.649
			c0.233,0.643,0.349,1.347,0.349,2.11h9.784c0-1.919-0.377-3.657-1.132-5.213c-0.755-1.556-1.803-2.883-3.145-3.984
			c-1.342-1.099-2.945-1.947-4.808-2.544c-1.864-0.596-3.904-0.895-6.122-0.895c-2.255,0-4.338,0.271-6.247,0.811
			c-1.911,0.541-3.564,1.304-4.962,2.292c-1.398,0.988-2.488,2.185-3.271,3.592c-0.782,1.407-1.173,2.986-1.173,4.738
			c0,1.826,0.386,3.424,1.16,4.794c0.773,1.37,1.803,2.568,3.089,3.592c1.286,1.025,2.757,1.91,4.417,2.655
			c1.658,0.746,3.382,1.417,5.171,2.013c1.528,0.503,2.763,0.979,3.704,1.426c0.941,0.447,1.672,0.899,2.195,1.356
			c0.522,0.457,0.871,0.941,1.048,1.454c0.177,0.513,0.266,1.086,0.266,1.719c0,0.541-0.098,1.053-0.293,1.537
			s-0.508,0.909-0.936,1.272c-0.429,0.363-0.974,0.653-1.636,0.866c-0.661,0.215-1.458,0.322-2.39,0.322
			c-1.156,0-2.176-0.107-3.061-0.322c-0.885-0.214-1.635-0.573-2.25-1.076c-0.615-0.503-1.081-1.16-1.398-1.971
			c-0.317-0.811-0.475-1.812-0.475-3.005h-9.84c0,1.603,0.228,3.056,0.685,4.361c0.456,1.305,1.08,2.469,1.873,3.494
			c0.792,1.025,1.733,1.906,2.823,2.642c1.09,0.736,2.264,1.346,3.522,1.831c1.258,0.485,2.576,0.843,3.955,1.076
			c1.379,0.233,2.767,0.349,4.165,0.349c2.273,0,4.337-0.252,6.191-0.755c1.854-0.503,3.438-1.239,4.752-2.209
			c1.314-0.968,2.33-2.166,3.047-3.592c0.717-1.426,1.076-3.051,1.076-4.878c0-1.714-0.303-3.252-0.908-4.612
			c-0.606-1.36-1.491-2.581-2.656-3.662c-1.165-1.081-2.595-2.041-4.291-2.879c-1.696-0.839-3.624-1.602-5.786-2.292
			c-1.156-0.373-2.195-0.75-3.117-1.132c-0.922-0.382-1.705-0.792-2.348-1.23c-0.643-0.437-1.137-0.903-1.482-1.398
			c-0.345-0.493-0.517-1.048-0.517-1.663c0-0.559,0.121-1.085,0.363-1.579C281.934,37.277,282.293,36.839,282.768,36.457z"/>
		<polygon class="st0" points="345.102,28.392 335.878,28.392 320.951,69.092 331.433,69.092 340.49,41.466 349.603,69.092 
			360.141,69.092 		"/>
		<polygon class="st0" points="246.692,28.392 231.765,69.092 242.248,69.092 251.304,41.466 260.417,69.092 270.955,69.092 
			255.916,28.392 		"/>
		<polygon class="st0" points="226.921,28.392 218.815,56.353 210.736,28.392 199.862,28.392 213.448,69.092 224.182,69.092 
			237.878,28.392 		"/>
		<rect x="308.135" y="28.392" class="st0" width="9.783" height="40.7"/>
	</g>
</g>
</svg>